<?xml version="1.0" encoding="UTF-8" standalone="no"?>
<!-- Created with Inkscape (http://www.inkscape.org/) -->

<svg
   xmlns:dc="http://purl.org/dc/elements/1.1/"
   xmlns:cc="http://creativecommons.org/ns#"
   xmlns:rdf="http://www.w3.org/1999/02/22-rdf-syntax-ns#"
   xmlns:svg="http://www.w3.org/2000/svg"
   xmlns="http://www.w3.org/2000/svg"
   xmlns:sodipodi="http://sodipodi.sourceforge.net/DTD/sodipodi-0.dtd"
   xmlns:inkscape="http://www.inkscape.org/namespaces/inkscape"
   width="110.06667mm"
   height="165.10001mm"
   viewBox="0 0 390 585.00002"
   id="svg2"
   version="1.1"
   inkscape:version="0.91 r13725"
   sodipodi:docname="place_holder.svg">
  <defs
     id="defs4" />
  <sodipodi:namedview
     id="base"
     pagecolor="#ffffff"
     bordercolor="#666666"
     borderopacity="1.0"
     inkscape:pageopacity="0.0"
     inkscape:pageshadow="2"
     inkscape:zoom="0.24748737"
     inkscape:cx="747.24694"
     inkscape:cy="223.80773"
     inkscape:document-units="px"
     inkscape:current-layer="layer1"
     showgrid="false"
     fit-margin-top="0"
     fit-margin-left="0"
     fit-margin-right="0"
     fit-margin-bottom="0"
     units="px"
     inkscape:window-width="1178"
     inkscape:window-height="731"
     inkscape:window-x="0"
     inkscape:window-y="0"
     inkscape:window-maximized="0" />
  <metadata
     id="metadata7">
    <rdf:RDF>
      <cc:Work
         rdf:about="">
        <dc:format>image/svg+xml</dc:format>
        <dc:type
           rdf:resource="http://purl.org/dc/dcmitype/StillImage" />
        <dc:title></dc:title>
      </cc:Work>
    </rdf:RDF>
  </metadata>
  <g
     inkscape:label="Layer 1"
     inkscape:groupmode="layer"
     id="layer1"
     transform="translate(0,-467.36221)">
    <rect
       style="fill:#f5f4ef;fill-opacity:1"
       id="rect4224"
       width="390"
       height="585"
       x="0"
       y="467.36221" />
    <g
       id="g4238"
       transform="matrix(0.5,0,0,0.5,-4.155564,503.25012)">
      <path
         inkscape:connector-curvature="0"
         id="rect3347"
         d="m 213.28652,263.12136 0,483.03306 370.04861,0 0,-483.03306 -370.04861,0 z m 40.18357,45.77635 15.39473,0 c 6.1968,0 11.18556,4.98876 11.18556,11.18556 l 0,13.40666 c 0,6.19684 -4.98876,11.18557 -11.18556,11.18557 l -15.39473,0 c -6.1968,0 -11.18557,-4.98873 -11.18557,-11.18557 l 0,-13.40666 c 0,-6.1968 4.98877,-11.18556 11.18557,-11.18556 z m 274.94218,0 15.3947,0 c 6.19681,0 11.18556,4.98876 11.18556,11.18556 l 0,13.40666 c 0,6.19684 -4.98875,11.18557 -11.18556,11.18557 l -15.3947,0 c -6.19684,0 -11.18557,-4.98873 -11.18557,-11.18557 l 0,-13.40666 c 0,-6.1968 4.98873,-11.18556 11.18557,-11.18556 z m -274.94218,60.85065 15.39473,0 c 6.1968,0 11.18556,4.98877 11.18556,11.18556 l 0,13.41397 c 0,6.19681 -4.98876,11.18556 -11.18556,11.18556 l -15.39473,0 c -6.1968,0 -11.18557,-4.98875 -11.18557,-11.18556 l 0,-13.41397 c 0,-6.19679 4.98877,-11.18556 11.18557,-11.18556 z m 274.94218,0 15.3947,0 c 6.19681,0 11.18556,4.98877 11.18556,11.18556 l 0,13.41397 c 0,6.19681 -4.98875,11.18556 -11.18556,11.18556 l -15.3947,0 c -6.19684,0 -11.18557,-4.98875 -11.18557,-11.18556 l 0,-13.41397 c 0,-6.19679 4.98873,-11.18556 11.18557,-11.18556 z m -274.94218,60.85069 15.39473,0 c 6.1968,0 11.18556,4.98876 11.18556,11.18557 l 0,13.41392 c 0,6.1968 -4.98876,11.18556 -11.18556,11.18556 l -15.39473,0 c -6.1968,0 -11.18557,-4.98876 -11.18557,-11.18556 l 0,-13.41392 c 0,-6.19681 4.98877,-11.18557 11.18557,-11.18557 z m 274.94218,0 15.3947,0 c 6.19681,0 11.18556,4.98876 11.18556,11.18557 l 0,13.41392 c 0,6.1968 -4.98875,11.18556 -11.18556,11.18556 l -15.3947,0 c -6.19684,0 -11.18557,-4.98876 -11.18557,-11.18556 l 0,-13.41392 c 0,-6.19681 4.98873,-11.18557 11.18557,-11.18557 z m -274.94218,60.85793 15.39473,0 c 6.1968,0 11.18556,4.98875 11.18556,11.18556 l 0,13.40668 c 0,6.19681 -4.98876,11.18557 -11.18556,11.18557 l -15.39473,0 c -6.1968,0 -11.18557,-4.98876 -11.18557,-11.18557 l 0,-13.40668 c 0,-6.19681 4.98877,-11.18556 11.18557,-11.18556 z m 274.94218,0 15.3947,0 c 6.19681,0 11.18556,4.98875 11.18556,11.18556 l 0,13.40668 c 0,6.19681 -4.98875,11.18557 -11.18556,11.18557 l -15.3947,0 c -6.19684,0 -11.18557,-4.98876 -11.18557,-11.18557 l 0,-13.40668 c 0,-6.19681 4.98873,-11.18556 11.18557,-11.18556 z m -274.94218,60.85064 15.39473,0 c 6.1968,0 11.18556,4.98876 11.18556,11.18556 l 0,13.4067 c 0,6.1968 -4.98876,11.18557 -11.18556,11.18557 l -15.39473,0 c -6.1968,0 -11.18557,-4.98877 -11.18557,-11.18557 l 0,-13.4067 c 0,-6.1968 4.98877,-11.18552 11.18557,-11.18556 z m 274.94218,0 15.3947,0 c 6.19681,0 11.18556,4.98876 11.18556,11.18556 l 0,13.4067 c 0,6.1968 -4.98875,11.18557 -11.18556,11.18557 l -15.3947,0 c -6.19684,0 -11.18557,-4.98877 -11.18557,-11.18557 l 0,-13.4067 c 0,-6.1968 4.98873,-11.18552 11.18557,-11.18556 z m -274.94218,60.85068 15.39473,0 c 6.1968,0 11.18556,4.98877 11.18556,11.18557 l 0,13.41392 c 0,6.19681 -4.98876,11.18558 -11.18556,11.18558 l -15.39473,0 c -6.1968,0 -11.18557,-4.98877 -11.18557,-11.18558 l 0,-13.41392 c 0,-6.1968 4.98877,-11.18557 11.18557,-11.18557 z m 274.94218,0 15.3947,0 c 6.19681,0 11.18556,4.98877 11.18556,11.18557 l 0,13.41392 c 0,6.19681 -4.98875,11.18558 -11.18556,11.18558 l -15.3947,0 c -6.19684,0 -11.18557,-4.98877 -11.18557,-11.18558 l 0,-13.41392 c 0,-6.1968 4.98873,-11.18557 11.18557,-11.18557 z m -274.94218,60.85066 15.39473,0 c 6.1968,0 11.18556,4.98877 11.18556,11.18556 l 0,13.41397 c 0,6.1968 -4.98876,11.18556 -11.18556,11.18556 l -15.39473,0 c -6.1968,0 -11.18557,-4.98876 -11.18557,-11.18556 l 0,-13.41397 c 0,-6.19679 4.98877,-11.18556 11.18557,-11.18556 z m 274.94218,0 15.3947,0 c 6.19681,0 11.18556,4.98877 11.18556,11.18556 l 0,13.41397 c 0,6.1968 -4.98875,11.18556 -11.18556,11.18556 l -15.3947,0 c -6.19684,0 -11.18557,-4.98876 -11.18557,-11.18556 l 0,-13.41397 c 0,-6.19679 4.98873,-11.18556 11.18557,-11.18556 z"
         style="fill:#cecece;fill-opacity:1" />
      <rect
         y="746.15442"
         x="213.28632"
         height="17.172594"
         width="370.04901"
         id="rect4226"
         style="fill:#c2c2c2;fill-opacity:1" />
      <path
         id="path4233"
         d="m 213.28711,446.64844 0,299.50586 370.04883,0 0,-299.50586 -28.34375,0 0,8.55078 c 0,6.1968 -4.98874,11.18555 -11.18555,11.18555 l -15.39453,0 c -6.19684,0 -11.18555,-4.98875 -11.18555,-11.18555 l 0,-8.55078 -237.17578,0 0,8.55078 c 0,6.1968 -4.98875,11.18555 -11.18555,11.18555 l -15.39453,0 c -6.1968,0 -11.18554,-4.98875 -11.18554,-11.18555 l 0,-8.55078 -28.99805,0 z m 40.18359,44.80859 15.39453,0 c 6.1968,0 11.18555,4.98874 11.18555,11.18555 l 0,13.40625 c 0,6.19681 -4.98875,11.18555 -11.18555,11.18555 l -15.39453,0 c -6.1968,0 -11.18554,-4.98874 -11.18554,-11.18555 l 0,-13.40625 c 0,-6.19681 4.98874,-11.18555 11.18554,-11.18555 z m 274.94141,0 15.39453,0 c 6.19681,0 11.18555,4.98874 11.18555,11.18555 l 0,13.40625 c 0,6.19681 -4.98874,11.18555 -11.18555,11.18555 l -15.39453,0 c -6.19684,0 -11.18555,-4.98874 -11.18555,-11.18555 l 0,-13.40625 c 0,-6.19681 4.98871,-11.18555 11.18555,-11.18555 z m -274.94141,60.85156 15.39453,0 c 6.1968,0 11.18555,4.98875 11.18555,11.18555 l 0,13.40625 c 0,6.1968 -4.98875,11.18555 -11.18555,11.18555 l -15.39453,0 c -6.1968,0 -11.18554,-4.98875 -11.18554,-11.18555 l 0,-13.40625 c 0,-6.1968 4.98874,-11.18551 11.18554,-11.18555 z m 274.94141,0 15.39453,0 c 6.19681,0 11.18555,4.98875 11.18555,11.18555 l 0,13.40625 c 0,6.1968 -4.98874,11.18555 -11.18555,11.18555 l -15.39453,0 c -6.19684,0 -11.18555,-4.98875 -11.18555,-11.18555 l 0,-13.40625 c 0,-6.1968 4.98871,-11.18551 11.18555,-11.18555 z m -274.94141,60.84961 15.39453,0 c 6.1968,0 11.18555,4.98875 11.18555,11.18555 l 0,13.41406 c 0,6.19681 -4.98875,11.18555 -11.18555,11.18555 l -15.39453,0 c -6.1968,0 -11.18554,-4.98874 -11.18554,-11.18555 l 0,-13.41406 c 0,-6.1968 4.98874,-11.18555 11.18554,-11.18555 z m 274.94141,0 15.39453,0 c 6.19681,0 11.18555,4.98875 11.18555,11.18555 l 0,13.41406 c 0,6.19681 -4.98874,11.18555 -11.18555,11.18555 l -15.39453,0 c -6.19684,0 -11.18555,-4.98874 -11.18555,-11.18555 l 0,-13.41406 c 0,-6.1968 4.98871,-11.18555 11.18555,-11.18555 z m -274.94141,60.85157 15.39453,0 c 6.1968,0 11.18555,4.98875 11.18555,11.18554 l 0,13.41407 c 0,6.1968 -4.98875,11.18554 -11.18555,11.18554 l -15.39453,0 c -6.1968,0 -11.18554,-4.98875 -11.18554,-11.18554 l 0,-13.41407 c 0,-6.19679 4.98874,-11.18554 11.18554,-11.18554 z m 274.94141,0 15.39453,0 c 6.19681,0 11.18555,4.98875 11.18555,11.18554 l 0,13.41407 c 0,6.1968 -4.98874,11.18554 -11.18555,11.18554 l -15.39453,0 c -6.19684,0 -11.18555,-4.98875 -11.18555,-11.18554 l 0,-13.41407 c 0,-6.19679 4.98871,-11.18554 11.18555,-11.18554 z"
         style="fill:#cacaca;fill-opacity:1"
         inkscape:connector-curvature="0" />
      <path
         id="path4228"
         d="m 213.28711,573.79102 0,172.36328 370.04883,0 0,-172.36328 -28.34375,0 0,3.10937 c 0,6.1968 -4.98874,11.18555 -11.18555,11.18555 l -15.39453,0 c -6.19684,0 -11.18555,-4.98875 -11.18555,-11.18555 l 0,-3.10937 -237.17578,0 0,3.10937 c 0,6.1968 -4.98875,11.18555 -11.18555,11.18555 l -15.39453,0 c -6.1968,0 -11.18554,-4.98875 -11.18554,-11.18555 l 0,-3.10937 -28.99805,0 z m 40.18359,39.36718 15.39453,0 c 6.1968,0 11.18555,4.98875 11.18555,11.18555 l 0,13.41406 c 0,6.19681 -4.98875,11.18555 -11.18555,11.18555 l -15.39453,0 c -6.1968,0 -11.18554,-4.98874 -11.18554,-11.18555 l 0,-13.41406 c 0,-6.1968 4.98874,-11.18555 11.18554,-11.18555 z m 274.94141,0 15.39453,0 c 6.19681,0 11.18555,4.98875 11.18555,11.18555 l 0,13.41406 c 0,6.19681 -4.98874,11.18555 -11.18555,11.18555 l -15.39453,0 c -6.19684,0 -11.18555,-4.98874 -11.18555,-11.18555 l 0,-13.41406 c 0,-6.1968 4.98871,-11.18555 11.18555,-11.18555 z m -274.94141,60.85157 15.39453,0 c 6.1968,0 11.18555,4.98875 11.18555,11.18554 l 0,13.41407 c 0,6.1968 -4.98875,11.18554 -11.18555,11.18554 l -15.39453,0 c -6.1968,0 -11.18554,-4.98875 -11.18554,-11.18554 l 0,-13.41407 c 0,-6.19679 4.98874,-11.18554 11.18554,-11.18554 z m 274.94141,0 15.39453,0 c 6.19681,0 11.18555,4.98875 11.18555,11.18554 l 0,13.41407 c 0,6.1968 -4.98874,11.18554 -11.18555,11.18554 l -15.39453,0 c -6.19684,0 -11.18555,-4.98875 -11.18555,-11.18554 l 0,-13.41407 c 0,-6.19679 4.98871,-11.18554 11.18555,-11.18554 z"
         style="fill:#c6c6c6;fill-opacity:1"
         inkscape:connector-curvature="0" />
    </g>
  </g>
</svg>
